<?xml version="1.0" encoding="UTF-8" standalone="no"?>
<!-- Created with Inkscape (http://www.inkscape.org/) -->

<svg
   xmlns:dc="http://purl.org/dc/elements/1.1/"
   xmlns:cc="http://creativecommons.org/ns#"
   xmlns:rdf="http://www.w3.org/1999/02/22-rdf-syntax-ns#"
   xmlns:svg="http://www.w3.org/2000/svg"
   xmlns="http://www.w3.org/2000/svg"
   xmlns:sodipodi="http://sodipodi.sourceforge.net/DTD/sodipodi-0.dtd"
   xmlns:inkscape="http://www.inkscape.org/namespaces/inkscape"
   width="69.468369mm"
   height="32.277107mm"
   viewBox="0 0 246.14776 114.3677"
   id="svg5238"
   version="1.1"
   inkscape:version="0.91 r13725"
   sodipodi:docname="cvrLogo.svg">
  <defs
     id="defs5240" />
  <sodipodi:namedview
     id="base"
     pagecolor="#ffffff"
     bordercolor="#666666"
     borderopacity="1.0"
     inkscape:pageopacity="0.0"
     inkscape:pageshadow="2"
     inkscape:zoom="0.98994949"
     inkscape:cx="284.31202"
     inkscape:cy="178.8787"
     inkscape:document-units="px"
     inkscape:current-layer="layer1"
     showgrid="false"
     fit-margin-top="4"
     fit-margin-left="4"
     fit-margin-right="4"
     fit-margin-bottom="4"
     inkscape:window-width="2504"
     inkscape:window-height="1395"
     inkscape:window-x="1440"
     inkscape:window-y="1"
     inkscape:window-maximized="1" />
  <metadata
     id="metadata5243">
    <rdf:RDF>
      <cc:Work
         rdf:about="">
        <dc:format>image/svg+xml</dc:format>
        <dc:type
           rdf:resource="http://purl.org/dc/dcmitype/StillImage" />
        <dc:title></dc:title>
      </cc:Work>
    </rdf:RDF>
  </metadata>
  <g
     inkscape:label="Layer 1"
     inkscape:groupmode="layer"
     id="layer1"
     transform="translate(12.154431,12.049458)">
    <g
       id="g5954"
       transform="matrix(3,0,0,3,-885.50913,-1693.3808)">
      <g
         transform="matrix(1.25,0,0,-1.25,334.77995,590.94394)"
         id="g4173">
        <path
           inkscape:connector-curvature="0"
           id="path4175"
           style="fill:#49aee6;fill-opacity:1;fill-rule:nonzero;stroke:none"
           d="m 0,0 c -0.403,0 -0.581,0.355 -0.581,0.751 0,0.194 0.047,0.385 0.162,0.527 0.101,0.127 0.251,0.2 0.419,0.2 0.139,0 0.269,-0.034 0.392,-0.105 C 0.4,1.368 0.408,1.364 0.416,1.364 c 0.013,0 0.023,0.009 0.031,0.027 L 0.49,1.489 c 0.004,0.013 0.007,0.024 0.007,0.031 0,0.016 -0.011,0.024 -0.032,0.038 -0.144,0.081 -0.307,0.118 -0.48,0.118 -0.527,0 -0.826,-0.437 -0.826,-0.939 0,-0.514 0.257,-0.931 0.807,-0.931 0.181,0 0.344,0.036 0.508,0.113 0.036,0.016 0.044,0.041 0.028,0.073 L 0.469,0.073 C 0.455,0.105 0.434,0.11 0.41,0.097 0.29,0.034 0.129,0 0,0 m 1.803,0.552 c 0,0.171 -0.044,0.327 -0.15,0.435 -0.086,0.088 -0.207,0.144 -0.358,0.144 -0.378,0 -0.612,-0.286 -0.612,-0.662 0,-0.398 0.215,-0.663 0.62,-0.663 0.122,0 0.29,0.023 0.403,0.076 0.024,0.013 0.037,0.024 0.028,0.047 L 1.706,0.026 C 1.697,0.058 1.671,0.053 1.649,0.044 1.559,0.011 1.441,-0.012 1.332,-0.012 c -0.265,0 -0.408,0.196 -0.415,0.447 l 0.808,0 c 0.067,0 0.078,0.012 0.078,0.072 l 0,0.045 z M 0.922,0.587 c 0.021,0.194 0.145,0.371 0.363,0.371 0.2,0 0.297,-0.156 0.297,-0.334 l 0,-0.037 -0.66,0 z M 3.156,0.66 c 0,0.287 -0.115,0.471 -0.418,0.471 -0.153,0 -0.311,-0.056 -0.432,-0.158 L 2.303,1.055 c 0,0.034 -0.018,0.047 -0.049,0.047 l -0.115,0 C 2.101,1.102 2.088,1.087 2.088,1.05 l 0,-1.166 c 0,-0.033 0.018,-0.052 0.051,-0.052 l 0.122,0 c 0.034,0 0.05,0.019 0.05,0.055 l 0,0.905 c 0.093,0.084 0.243,0.153 0.364,0.153 0.21,0 0.258,-0.134 0.258,-0.321 l 0,-0.737 c 0,-0.036 0.015,-0.055 0.049,-0.055 l 0.124,0 c 0.036,0 0.05,0.019 0.05,0.055 l 0,0.773 z M 3.828,0.035 C 3.789,0.079 3.784,0.147 3.784,0.234 l 0,0.711 0.308,0 c 0.026,0 0.039,0.007 0.039,0.034 l 0,0.089 c 0,0.028 -0.013,0.034 -0.037,0.034 l -0.31,0 0,0.323 c 0,0.029 -0.013,0.048 -0.04,0.048 l -0.01,0 L 3.606,1.454 C 3.571,1.449 3.561,1.439 3.561,1.402 l 0,-0.3 -0.15,0 c -0.024,0 -0.034,-0.01 -0.034,-0.036 l 0,-0.082 c 0,-0.035 0.004,-0.039 0.039,-0.039 l 0.145,0 0,-0.69 c 0,-0.163 0.005,-0.268 0.081,-0.352 0.061,-0.065 0.173,-0.097 0.287,-0.097 0.089,0 0.184,0.023 0.244,0.047 0.031,0.012 0.04,0.026 0.034,0.053 L 4.187,-0.01 C 4.178,0.013 4.157,0.022 4.139,0.013 4.096,0 4.033,-0.018 3.972,-0.018 c -0.067,0 -0.114,0.02 -0.144,0.053 m 0.779,1.067 -0.114,0 c -0.03,0 -0.05,-0.013 -0.05,-0.052 l 0,-1.163 c 0,-0.036 0.016,-0.055 0.05,-0.055 l 0.124,0 c 0.034,0 0.05,0.021 0.05,0.055 l 0,0.897 c 0.069,0.098 0.171,0.158 0.264,0.158 0.047,0 0.062,-0.007 0.083,-0.007 0.017,0 0.027,0.007 0.03,0.026 L 5.061,1.078 C 5.064,1.096 5.064,1.118 5.041,1.123 5.014,1.128 4.983,1.131 4.964,1.131 4.824,1.131 4.725,1.052 4.662,0.965 L 4.66,1.055 c 0,0.034 -0.019,0.047 -0.053,0.047 m 1.697,-0.55 c 0,0.171 -0.045,0.327 -0.15,0.435 -0.087,0.088 -0.207,0.144 -0.358,0.144 -0.379,0 -0.613,-0.286 -0.613,-0.662 0,-0.398 0.217,-0.663 0.621,-0.663 0.121,0 0.289,0.023 0.402,0.076 0.025,0.013 0.038,0.024 0.03,0.047 L 6.206,0.026 C 6.199,0.058 6.172,0.053 6.149,0.044 6.059,0.011 5.941,-0.012 5.834,-0.012 c -0.266,0 -0.409,0.196 -0.417,0.447 l 0.808,0 c 0.069,0 0.079,0.012 0.079,0.072 l 0,0.045 z M 5.422,0.587 c 0.022,0.194 0.146,0.371 0.363,0.371 0.201,0 0.298,-0.156 0.298,-0.334 l 0,-0.037 -0.661,0 z m 2.194,1.14 C 7.372,1.727 7.233,1.591 7.201,1.362 7.196,1.315 7.19,1.247 7.19,1.152 l 0,-0.05 -0.152,0 c -0.026,0 -0.037,-0.01 -0.037,-0.036 l 0,-0.082 c 0,-0.035 0.005,-0.039 0.034,-0.039 l 0.155,0 0,-1.058 c 0,-0.036 0.016,-0.055 0.05,-0.055 l 0.124,0 c 0.037,0 0.05,0.021 0.05,0.057 l 0,1.056 0.325,0 c 0.027,0 0.038,0.01 0.038,0.036 l 0,0.09 c 0,0.025 -0.013,0.031 -0.04,0.031 l -0.323,0 0,0.123 c 0,0.206 0.049,0.325 0.23,0.325 0.06,0 0.129,-0.019 0.173,-0.035 C 7.824,1.513 7.832,1.51 7.84,1.51 c 0.013,0 0.021,0.007 0.027,0.026 L 7.884,1.618 C 7.893,1.647 7.893,1.67 7.856,1.684 7.79,1.709 7.696,1.727 7.616,1.727 M 9.138,0.469 c 0,0.381 -0.182,0.662 -0.59,0.662 -0.393,0 -0.606,-0.289 -0.606,-0.66 0,-0.377 0.182,-0.665 0.589,-0.665 0.393,0 0.607,0.291 0.607,0.663 M 8.908,0.466 c 0,-0.245 -0.097,-0.487 -0.374,-0.487 -0.279,0 -0.361,0.255 -0.361,0.497 0,0.231 0.088,0.482 0.372,0.482 0.273,0 0.363,-0.248 0.363,-0.492 m 0.692,0.636 -0.113,0 C 9.455,1.102 9.435,1.089 9.435,1.05 l 0,-1.163 c 0,-0.036 0.017,-0.055 0.052,-0.055 l 0.123,0 c 0.034,0 0.05,0.021 0.05,0.055 l 0,0.897 c 0.068,0.098 0.171,0.158 0.262,0.158 0.048,0 0.064,-0.007 0.085,-0.007 0.016,0 0.026,0.007 0.029,0.026 l 0.018,0.117 c 0.002,0.018 0.002,0.04 -0.021,0.045 -0.026,0.005 -0.057,0.008 -0.076,0.008 -0.14,0 -0.24,-0.079 -0.303,-0.166 l -10e-4,0.09 c 0,0.034 -0.02,0.047 -0.053,0.047 m 2.435,0.542 c -0.05,0 -0.063,-0.01 -0.079,-0.055 l -0.481,-1.412 -0.005,0 -0.501,1.417 c -0.012,0.04 -0.031,0.05 -0.081,0.05 l -0.152,0 c -0.043,0 -0.047,-0.032 -0.037,-0.063 l 0.626,-1.694 c 0.015,-0.042 0.034,-0.055 0.071,-0.055 l 0.123,0 c 0.034,0 0.055,0.016 0.069,0.05 l 0.608,1.707 c 0.011,0.031 0.011,0.055 -0.037,0.055 l -0.124,0 z m 0.672,-0.231 c 0,0.075 -0.065,0.125 -0.137,0.125 -0.07,0 -0.133,-0.05 -0.133,-0.125 0,-0.077 0.063,-0.127 0.133,-0.127 0.069,0 0.137,0.05 0.137,0.127 M 12.684,1.05 c 0,0.037 -0.016,0.052 -0.05,0.052 l -0.121,0 C 12.479,1.102 12.46,1.087 12.46,1.05 l 0,-1.163 c 0,-0.036 0.019,-0.055 0.053,-0.055 l 0.121,0 c 0.034,0 0.05,0.019 0.05,0.055 l 0,1.163 z m 0.538,0.052 -0.112,0 c -0.032,0 -0.05,-0.013 -0.05,-0.052 l 0,-1.163 c 0,-0.036 0.016,-0.055 0.05,-0.055 l 0.122,0 c 0.035,0 0.051,0.021 0.051,0.055 l 0,0.897 c 0.068,0.098 0.171,0.158 0.263,0.158 0.048,0 0.063,-0.007 0.085,-0.007 0.015,0 0.026,0.007 0.028,0.026 l 0.019,0.117 c 0.002,0.018 0.002,0.04 -0.021,0.045 -0.026,0.005 -0.058,0.008 -0.076,0.008 -0.14,0 -0.24,-0.079 -0.304,-0.166 l -0.002,0.09 c 0,0.034 -0.018,0.047 -0.053,0.047 M 14.956,1.05 c 0,0.037 -0.015,0.052 -0.05,0.052 l -0.123,0 c -0.034,0 -0.051,-0.015 -0.051,-0.052 l 0,-0.897 c -0.084,-0.08 -0.231,-0.156 -0.346,-0.156 -0.211,0 -0.253,0.132 -0.253,0.319 l 0,0.734 c 0,0.037 -0.019,0.052 -0.053,0.052 l -0.118,0 c -0.034,0 -0.053,-0.015 -0.053,-0.052 l 0,-0.769 c 0,-0.281 0.11,-0.475 0.413,-0.475 0.152,0 0.294,0.055 0.417,0.157 l 10e-4,-0.081 c 0,-0.032 0.02,-0.05 0.05,-0.05 l 0.114,0 c 0.037,0 0.052,0.018 0.052,0.057 l 0,1.161 z m 1.14,-0.853 c 0,0.168 -0.118,0.274 -0.263,0.335 l -0.205,0.087 c -0.111,0.047 -0.163,0.088 -0.163,0.178 0,0.09 0.076,0.164 0.216,0.164 0.083,0 0.207,-0.033 0.275,-0.064 0.008,-0.003 0.016,-0.006 0.022,-0.006 0.013,0 0.024,0.009 0.029,0.027 l 0.029,0.092 c 0.002,0.008 0.005,0.016 0.005,0.021 0,0.01 -0.008,0.019 -0.024,0.027 -0.118,0.054 -0.228,0.073 -0.342,0.073 -0.231,0 -0.442,-0.118 -0.442,-0.35 0,-0.165 0.116,-0.271 0.271,-0.332 l 0.177,-0.068 c 0.121,-0.047 0.196,-0.102 0.196,-0.205 0,-0.123 -0.102,-0.197 -0.255,-0.197 -0.089,0 -0.212,0.036 -0.313,0.079 C 15.29,0.066 15.273,0.055 15.265,0.034 L 15.23,-0.061 c -0.007,-0.02 0,-0.04 0.024,-0.05 0.088,-0.039 0.225,-0.083 0.361,-0.083 0.278,0 0.481,0.149 0.481,0.391 m 1.726,-0.318 c 0.017,-0.034 0.042,-0.047 0.082,-0.047 l 0.156,0 c 0.037,0 0.042,0.032 0.027,0.055 L 17.659,0.605 17.656,0.61 c 0.208,0.071 0.367,0.25 0.367,0.502 0,0.141 -0.037,0.256 -0.107,0.342 -0.115,0.143 -0.319,0.19 -0.555,0.19 l -0.378,0 c -0.04,0 -0.053,-0.016 -0.053,-0.058 l 0,-1.699 c 0,-0.036 0.016,-0.055 0.049,-0.055 l 0.145,0 c 0.034,0 0.05,0.021 0.05,0.055 l 0,0.682 0.253,0 0.395,-0.69 z M 17.778,1.11 c 0,-0.234 -0.17,-0.358 -0.401,-0.358 l -0.203,0 0,0.705 0.169,0 c 0.271,0 0.435,-0.089 0.435,-0.347 m 1.624,-0.558 c 0,0.171 -0.046,0.327 -0.151,0.435 -0.087,0.088 -0.208,0.144 -0.358,0.144 -0.379,0 -0.613,-0.286 -0.613,-0.662 0,-0.398 0.217,-0.663 0.62,-0.663 0.123,0 0.291,0.023 0.404,0.076 0.023,0.013 0.036,0.024 0.029,0.047 l -0.029,0.097 c -0.008,0.032 -0.034,0.027 -0.059,0.018 -0.089,-0.033 -0.207,-0.056 -0.316,-0.056 -0.265,0 -0.407,0.196 -0.415,0.447 l 0.808,0 c 0.068,0 0.08,0.012 0.08,0.072 l 0,0.045 z M 18.52,0.587 c 0.02,0.194 0.144,0.371 0.362,0.371 0.201,0 0.298,-0.156 0.298,-0.334 l 0,-0.037 -0.66,0 z m 1.955,-0.39 c 0,0.168 -0.119,0.274 -0.264,0.335 l -0.205,0.087 c -0.111,0.047 -0.163,0.088 -0.163,0.178 0,0.09 0.077,0.164 0.216,0.164 0.083,0 0.207,-0.033 0.276,-0.064 0.008,-0.003 0.016,-0.006 0.021,-0.006 0.013,0 0.024,0.009 0.029,0.027 l 0.029,0.092 c 0.003,0.008 0.005,0.016 0.005,0.021 0,0.01 -0.008,0.019 -0.024,0.027 -0.117,0.054 -0.228,0.073 -0.341,0.073 -0.232,0 -0.442,-0.118 -0.442,-0.35 0,-0.165 0.116,-0.271 0.271,-0.332 l 0.176,-0.068 c 0.121,-0.047 0.198,-0.102 0.198,-0.205 0,-0.123 -0.104,-0.197 -0.256,-0.197 -0.09,0 -0.213,0.036 -0.313,0.079 -0.017,0.008 -0.036,-0.003 -0.044,-0.024 l -0.035,-0.095 c -0.007,-0.02 0,-0.04 0.025,-0.05 0.085,-0.039 0.225,-0.083 0.359,-0.083 0.279,0 0.482,0.149 0.482,0.391 m 1.33,0.355 c 0,0.171 -0.045,0.327 -0.15,0.435 -0.087,0.088 -0.207,0.144 -0.358,0.144 -0.379,0 -0.612,-0.286 -0.612,-0.662 0,-0.398 0.215,-0.663 0.62,-0.663 0.122,0 0.289,0.023 0.404,0.076 0.022,0.013 0.035,0.024 0.027,0.047 l -0.027,0.097 c -0.01,0.032 -0.035,0.027 -0.059,0.018 -0.09,-0.033 -0.207,-0.056 -0.316,-0.056 -0.266,0 -0.408,0.196 -0.416,0.447 l 0.809,0 c 0.067,0 0.078,0.012 0.078,0.072 l 0,0.045 z m -0.881,0.035 c 0.021,0.194 0.144,0.371 0.363,0.371 0.2,0 0.298,-0.156 0.298,-0.334 l 0,-0.037 -0.661,0 z m 2.344,-0.631 c 0,0.028 -0.014,0.032 -0.037,0.032 l -0.018,0 c -0.022,0 -0.034,0.006 -0.045,0.025 -0.01,0.015 -0.013,0.058 -0.013,0.118 l 0,0.921 c 0,0.035 -0.016,0.05 -0.047,0.05 l -0.118,0 c -0.029,0 -0.051,-0.013 -0.051,-0.044 L 22.937,0.971 c -0.079,0.104 -0.222,0.16 -0.353,0.16 -0.301,0 -0.56,-0.247 -0.56,-0.687 0,-0.331 0.16,-0.638 0.523,-0.638 0.161,0 0.334,0.105 0.395,0.22 l 0.005,0 c 0,-0.104 0.055,-0.194 0.171,-0.194 l 0.111,0 c 0.025,0 0.039,0.007 0.039,0.033 l 0,0.091 z m -0.337,0.301 c -0.046,-0.13 -0.181,-0.265 -0.349,-0.265 -0.19,0 -0.324,0.178 -0.324,0.468 0,0.313 0.152,0.492 0.355,0.492 0.126,0 0.255,-0.07 0.318,-0.189 l 0,-0.506 z m 0.775,0.845 -0.113,0 c -0.031,0 -0.05,-0.013 -0.05,-0.052 l 0,-1.163 c 0,-0.036 0.016,-0.055 0.05,-0.055 l 0.124,0 c 0.034,0 0.049,0.021 0.049,0.055 l 0,0.897 c 0.069,0.098 0.171,0.158 0.263,0.158 0.047,0 0.064,-0.007 0.084,-0.007 0.016,0 0.027,0.007 0.029,0.026 l 0.019,0.117 c 0.003,0.018 0.003,0.04 -0.021,0.045 -0.027,0.005 -0.058,0.008 -0.076,0.008 -0.14,0 -0.24,-0.079 -0.303,-0.166 l -0.003,0.09 c 0,0.034 -0.018,0.047 -0.052,0.047 m 1.575,-1.186 c 0,0.007 -0.003,0.018 -0.005,0.028 L 25.252,0.018 C 25.246,0.037 25.239,0.044 25.225,0.044 25.22,0.044 25.212,0.042 25.204,0.04 25.12,0.002 25.023,-0.023 24.91,-0.023 c -0.281,0 -0.397,0.23 -0.397,0.499 0,0.296 0.158,0.482 0.408,0.482 0.102,0 0.192,-0.03 0.273,-0.067 0.008,-0.004 0.018,-0.007 0.023,-0.007 0.016,0 0.024,0.013 0.029,0.032 L 25.267,1 c 0.003,0.008 0.005,0.013 0.005,0.021 0,0.015 -0.007,0.025 -0.026,0.034 -0.092,0.047 -0.223,0.076 -0.336,0.076 -0.394,0 -0.629,-0.278 -0.629,-0.665 0,-0.393 0.201,-0.66 0.613,-0.66 0.121,0 0.242,0.023 0.355,0.076 0.023,0.01 0.032,0.017 0.032,0.034 m 1.303,0.744 c 0,0.287 -0.11,0.471 -0.413,0.471 -0.147,0 -0.316,-0.053 -0.431,-0.155 l 0,0.681 c 0,0.034 -0.016,0.045 -0.04,0.045 -0.008,0 -0.034,-0.005 -0.133,-0.018 -0.032,-0.007 -0.05,-0.019 -0.05,-0.056 l 0,-1.749 c 0,-0.031 0.013,-0.047 0.042,-0.047 l 0.136,0 c 0.031,0 0.045,0.016 0.045,0.05 l 0,0.91 c 0.092,0.084 0.245,0.153 0.366,0.153 0.207,0 0.255,-0.137 0.255,-0.321 l 0,-0.742 c 0,-0.034 0.013,-0.05 0.045,-0.05 l 0.137,0 c 0.031,0 0.041,0.016 0.041,0.05 l 0,0.778 z" />
      </g>
      <g
         transform="matrix(1.25,0,0,-1.25,335.61583,585.46231)"
         id="g4177">
        <path
           inkscape:connector-curvature="0"
           id="path4179"
           style="fill:#49aee6;fill-opacity:1;fill-rule:nonzero;stroke:none"
           d="m 0,0 c 0,0.033 -0.013,0.052 -0.051,0.052 l -0.141,0 C -0.226,0.052 -0.245,0.033 -0.245,0 l 0,-0.927 c 0,-0.339 -0.052,-0.654 -0.473,-0.654 -0.438,0 -0.482,0.299 -0.482,0.652 L -1.2,0 c 0,0.033 -0.013,0.052 -0.05,0.052 l -0.145,0 C -1.429,0.052 -1.444,0.033 -1.444,0 l 0,-0.952 c 0,-0.514 0.152,-0.835 0.723,-0.835 C -0.2,-1.787 0,-1.45 0,-0.969 L 0,0 Z m 1.48,-0.931 c 0,0.286 -0.115,0.47 -0.418,0.47 -0.153,0 -0.311,-0.055 -0.432,-0.158 l -0.003,0.081 c 0,0.035 -0.018,0.048 -0.05,0.048 l -0.115,0 c -0.038,0 -0.05,-0.016 -0.05,-0.052 l 0,-1.165 c 0,-0.035 0.019,-0.053 0.05,-0.053 l 0.123,0 c 0.034,0 0.05,0.018 0.05,0.056 l 0,0.905 c 0.092,0.084 0.242,0.152 0.363,0.152 0.211,0 0.259,-0.135 0.259,-0.32 l 0,-0.737 c 0,-0.038 0.015,-0.056 0.049,-0.056 l 0.124,0 c 0.036,0 0.05,0.018 0.05,0.056 l 0,0.773 z m 0.645,0.751 c 0,0.077 -0.066,0.127 -0.137,0.127 -0.07,0 -0.133,-0.05 -0.133,-0.127 0,-0.076 0.063,-0.125 0.133,-0.125 0.069,0 0.137,0.049 0.137,0.125 M 2.102,-0.542 c 0,0.036 -0.017,0.052 -0.05,0.052 l -0.121,0 c -0.035,0 -0.052,-0.016 -0.052,-0.052 l 0,-1.162 c 0,-0.038 0.017,-0.056 0.052,-0.056 l 0.121,0 c 0.033,0 0.05,0.018 0.05,0.056 l 0,1.162 z m 1.348,0.052 -0.122,0 C 3.292,-0.49 3.274,-0.5 3.263,-0.532 L 3.026,-1.248 C 2.994,-1.342 2.963,-1.445 2.947,-1.5 l -0.003,0 C 2.926,-1.439 2.895,-1.345 2.861,-1.24 L 2.623,-0.527 C 2.615,-0.5 2.601,-0.49 2.561,-0.49 l -0.145,0 c -0.031,0 -0.047,-0.018 -0.037,-0.048 L 2.81,-1.718 C 2.821,-1.748 2.839,-1.76 2.873,-1.76 l 0.116,0 c 0.029,0 0.048,0.01 0.061,0.042 l 0.436,1.18 c 0.011,0.03 0.006,0.048 -0.036,0.048 m 1.318,-0.55 c 0,0.172 -0.044,0.327 -0.149,0.435 -0.087,0.089 -0.208,0.144 -0.358,0.144 -0.379,0 -0.613,-0.287 -0.613,-0.663 0,-0.397 0.215,-0.663 0.62,-0.663 0.122,0 0.29,0.024 0.403,0.077 0.023,0.013 0.037,0.023 0.029,0.047 l -0.029,0.097 c -0.008,0.032 -0.034,0.027 -0.058,0.019 -0.09,-0.034 -0.208,-0.055 -0.316,-0.055 -0.265,0 -0.408,0.194 -0.415,0.444 l 0.808,0 c 0.068,0 0.078,0.014 0.078,0.074 l 0,0.044 z m -0.881,0.035 c 0.021,0.194 0.145,0.371 0.363,0.371 0.2,0 0.298,-0.156 0.298,-0.335 l 0,-0.036 -0.661,0 z m 1.356,0.515 -0.113,0 c -0.032,0 -0.05,-0.013 -0.05,-0.052 l 0,-1.162 c 0,-0.038 0.016,-0.056 0.05,-0.056 l 0.123,0 c 0.035,0 0.05,0.021 0.05,0.056 l 0,0.896 c 0.069,0.097 0.171,0.157 0.262,0.157 0.048,0 0.064,-0.007 0.085,-0.007 0.015,0 0.026,0.007 0.029,0.026 l 0.018,0.119 C 5.7,-0.495 5.7,-0.474 5.676,-0.469 5.65,-0.463 5.619,-0.461 5.6,-0.461 5.462,-0.461 5.361,-0.54 5.297,-0.626 l -0.002,0.088 c 0,0.035 -0.019,0.048 -0.052,0.048 m 1.509,-0.905 c 0,0.168 -0.119,0.274 -0.263,0.335 l -0.205,0.087 c -0.11,0.047 -0.164,0.089 -0.164,0.179 0,0.088 0.077,0.162 0.217,0.162 0.084,0 0.208,-0.032 0.276,-0.063 0.007,-0.002 0.016,-0.005 0.02,-0.005 0.014,0 0.025,0.008 0.029,0.026 l 0.03,0.092 c 0.002,0.008 0.005,0.016 0.005,0.021 0,0.011 -0.008,0.019 -0.024,0.027 -0.117,0.055 -0.229,0.073 -0.341,0.073 -0.232,0 -0.443,-0.118 -0.443,-0.35 0,-0.166 0.116,-0.271 0.271,-0.331 L 6.337,-1.21 c 0.121,-0.048 0.198,-0.104 0.198,-0.206 0,-0.123 -0.103,-0.197 -0.256,-0.197 -0.09,0 -0.214,0.037 -0.313,0.079 C 5.947,-1.526 5.929,-1.537 5.922,-1.558 L 5.886,-1.653 c -0.008,-0.02 0,-0.039 0.025,-0.049 0.086,-0.04 0.226,-0.085 0.36,-0.085 0.279,0 0.481,0.15 0.481,0.392 m 0.547,1.215 c 0,0.077 -0.065,0.127 -0.136,0.127 -0.072,0 -0.134,-0.05 -0.134,-0.127 0,-0.076 0.062,-0.125 0.134,-0.125 0.068,0 0.136,0.049 0.136,0.125 M 7.275,-0.542 c 0,0.036 -0.015,0.052 -0.049,0.052 l -0.121,0 c -0.034,0 -0.053,-0.016 -0.053,-0.052 l 0,-1.162 c 0,-0.038 0.019,-0.056 0.053,-0.056 l 0.121,0 c 0.034,0 0.049,0.018 0.049,0.056 l 0,1.162 z m 0.731,-1.015 c -0.04,0.044 -0.045,0.112 -0.045,0.199 l 0,0.711 0.308,0 c 0.026,0 0.039,0.008 0.039,0.033 l 0,0.09 c 0,0.029 -0.013,0.034 -0.036,0.034 l -0.311,0 0,0.324 c 0,0.029 -0.013,0.047 -0.039,0.047 l -0.011,0 -0.129,-0.018 C 7.748,-0.143 7.739,-0.154 7.739,-0.19 l 0,-0.3 -0.151,0 c -0.024,0 -0.035,-0.01 -0.035,-0.037 l 0,-0.081 c 0,-0.034 0.007,-0.039 0.041,-0.039 l 0.145,0 0,-0.689 c 0,-0.164 0.004,-0.269 0.08,-0.354 0.061,-0.065 0.174,-0.097 0.288,-0.097 0.089,0 0.183,0.024 0.243,0.048 0.033,0.013 0.041,0.026 0.035,0.052 L 8.364,-1.602 C 8.356,-1.579 8.335,-1.571 8.317,-1.579 8.275,-1.591 8.212,-1.61 8.151,-1.61 c -0.069,0 -0.116,0.021 -0.145,0.053 m 0.759,1.067 -0.174,0 c -0.026,0 -0.035,-0.023 -0.026,-0.045 L 9.035,-1.781 8.968,-1.95 C 8.912,-2.088 8.825,-2.145 8.681,-2.145 c -0.026,0 -0.064,0.006 -0.092,0.008 l -0.011,0 c -0.023,0 -0.037,-0.01 -0.04,-0.037 l -0.013,-0.099 0,-0.014 c 0,-0.018 0.006,-0.034 0.03,-0.04 0.039,-0.007 0.08,-0.009 0.118,-0.009 0.283,0 0.416,0.11 0.532,0.421 l 0.512,1.375 c 0.002,0.008 0.005,0.016 0.005,0.024 0,0.016 -0.01,0.026 -0.034,0.026 l -0.145,0 C 9.512,-0.49 9.499,-0.5 9.489,-0.53 L 9.157,-1.507 8.815,-0.524 C 8.807,-0.5 8.792,-0.49 8.765,-0.49 m 2.901,-0.634 c 0,0.382 -0.184,0.663 -0.591,0.663 -0.393,0 -0.606,-0.29 -0.606,-0.66 0,-0.376 0.181,-0.666 0.589,-0.666 0.393,0 0.608,0.292 0.608,0.663 m -0.232,-0.003 c 0,-0.244 -0.096,-0.486 -0.373,-0.486 -0.279,0 -0.361,0.255 -0.361,0.497 0,0.232 0.087,0.482 0.372,0.482 0.274,0 0.362,-0.247 0.362,-0.493 m 1.025,1.262 c -0.245,0 -0.384,-0.135 -0.415,-0.365 -0.005,-0.048 -0.01,-0.115 -0.01,-0.21 l 0,-0.05 -0.154,0 c -0.026,0 -0.036,-0.01 -0.036,-0.037 l 0,-0.081 c 0,-0.034 0.005,-0.039 0.034,-0.039 l 0.156,0 0,-1.057 c 0,-0.038 0.015,-0.056 0.049,-0.056 l 0.124,0 c 0.036,0 0.048,0.021 0.048,0.058 l 0,1.055 0.328,0 c 0.025,0 0.036,0.01 0.036,0.036 l 0,0.09 c 0,0.026 -0.013,0.031 -0.039,0.031 l -0.325,0 0,0.124 c 0,0.205 0.051,0.324 0.23,0.324 0.06,0 0.132,-0.019 0.174,-0.035 0.008,-0.002 0.015,-0.004 0.023,-0.004 0.014,0 0.021,0.007 0.027,0.026 l 0.019,0.081 c 0.007,0.029 0.007,0.052 -0.03,0.065 -0.065,0.027 -0.16,0.044 -0.239,0.044 m 2.414,-0.902 c 0,0.04 -0.01,0.051 -0.049,0.051 l -0.471,0 c -0.034,0 -0.047,-0.008 -0.047,-0.042 l 0,-0.1 c 0,-0.042 0.013,-0.048 0.047,-0.048 l 0.276,0 0,-0.623 c -0.09,-0.044 -0.218,-0.066 -0.334,-0.066 -0.408,0 -0.581,0.35 -0.581,0.745 0,0.229 0.068,0.435 0.205,0.568 0.103,0.103 0.248,0.163 0.424,0.163 0.108,0 0.26,-0.033 0.357,-0.073 0.026,-0.011 0.05,-0.006 0.061,0.023 l 0.036,0.103 c 0.003,0.01 0.006,0.019 0.006,0.026 0,0.016 -0.011,0.026 -0.033,0.037 -0.133,0.057 -0.298,0.087 -0.436,0.087 -0.552,0 -0.88,-0.406 -0.88,-0.94 0,-0.544 0.276,-0.931 0.846,-0.931 0.174,0 0.388,0.048 0.516,0.119 0.047,0.026 0.057,0.044 0.057,0.1 l 0,0.801 z m 0.639,0.831 c 0,0.035 -0.015,0.045 -0.039,0.045 -0.007,0 -0.008,0 -0.144,-0.018 C 15.297,0.087 15.29,0.075 15.29,0.038 l 0,-1.745 c 0,-0.038 0.015,-0.053 0.046,-0.053 l 0.129,0 c 0.032,0 0.047,0.018 0.047,0.056 l 0,1.768 z m 1.562,-1.701 c 0,0.029 -0.014,0.035 -0.037,0.035 l -0.018,0 c -0.022,0 -0.035,0.005 -0.045,0.023 -0.011,0.015 -0.013,0.058 -0.013,0.119 l 0,0.92 c 0,0.034 -0.016,0.05 -0.048,0.05 l -0.118,0 c -0.029,0 -0.049,-0.013 -0.049,-0.044 l -0.004,-0.087 c -0.078,0.105 -0.22,0.16 -0.353,0.16 -0.299,0 -0.56,-0.247 -0.56,-0.686 0,-0.332 0.161,-0.64 0.524,-0.64 0.161,0 0.334,0.106 0.395,0.221 l 0.005,0 c 0,-0.105 0.055,-0.194 0.171,-0.194 l 0.11,0 c 0.026,0 0.04,0.008 0.04,0.034 l 0,0.089 z m -0.337,0.303 C 16.691,-1.466 16.555,-1.6 16.387,-1.6 c -0.189,0 -0.323,0.179 -0.323,0.469 0,0.313 0.152,0.492 0.355,0.492 0.126,0 0.255,-0.072 0.318,-0.19 l 0,-0.505 z m 1.439,-0.061 c 0,0.168 -0.12,0.274 -0.263,0.335 l -0.206,0.087 c -0.11,0.047 -0.164,0.089 -0.164,0.179 0,0.088 0.078,0.162 0.216,0.162 0.085,0 0.209,-0.032 0.277,-0.063 0.008,-0.002 0.016,-0.005 0.02,-0.005 0.015,0 0.024,0.008 0.03,0.026 l 0.03,0.092 c 0.002,0.008 0.004,0.016 0.004,0.021 0,0.011 -0.009,0.019 -0.023,0.027 -0.118,0.055 -0.229,0.073 -0.342,0.073 -0.232,0 -0.443,-0.118 -0.443,-0.35 0,-0.166 0.116,-0.271 0.271,-0.331 l 0.176,-0.068 c 0.122,-0.048 0.198,-0.104 0.198,-0.206 0,-0.123 -0.103,-0.197 -0.255,-0.197 -0.09,0 -0.214,0.037 -0.313,0.079 -0.019,0.008 -0.036,-0.003 -0.045,-0.024 L 17.31,-1.653 c -0.008,-0.02 0,-0.039 0.023,-0.049 0.088,-0.04 0.227,-0.085 0.362,-0.085 0.278,0 0.481,0.15 0.481,0.392 m 1.377,-0.297 0,1.15 c 0,0.036 -0.013,0.052 -0.048,0.052 l -0.114,0 c -0.032,0 -0.054,-0.01 -0.054,-0.044 l -0.002,-0.082 c -0.076,0.1 -0.223,0.155 -0.347,0.155 -0.377,0 -0.576,-0.312 -0.576,-0.666 0,-0.344 0.168,-0.633 0.542,-0.633 0.131,0 0.291,0.06 0.376,0.155 l 0,-0.121 c 0,-0.274 -0.082,-0.43 -0.374,-0.43 -0.092,0 -0.207,0.038 -0.303,0.08 -0.01,0.005 -0.018,0.008 -0.026,0.008 -0.016,0 -0.028,-0.013 -0.037,-0.037 l -0.029,-0.078 c -0.002,-0.009 -0.005,-0.017 -0.005,-0.025 0,-0.018 0.01,-0.031 0.032,-0.042 0.113,-0.052 0.252,-0.089 0.373,-0.089 0.425,0 0.592,0.239 0.592,0.647 m -0.223,0.279 c -0.066,-0.094 -0.213,-0.166 -0.34,-0.166 -0.257,0 -0.344,0.242 -0.344,0.466 0,0.239 0.1,0.474 0.368,0.474 0.129,0 0.258,-0.08 0.316,-0.182 l 0,-0.592 z m 1.744,0.289 c 0,0.382 -0.184,0.663 -0.592,0.663 -0.392,0 -0.605,-0.29 -0.605,-0.66 0,-0.376 0.181,-0.666 0.589,-0.666 0.392,0 0.608,0.292 0.608,0.663 m -0.232,-0.003 c 0,-0.244 -0.097,-0.486 -0.373,-0.486 -0.28,0 -0.361,0.255 -0.361,0.497 0,0.232 0.087,0.482 0.371,0.482 0.274,0 0.363,-0.247 0.363,-0.493 m 1.976,0.637 c -0.036,0 -0.055,-0.016 -0.062,-0.045 l -0.248,-0.954 -0.005,0 -0.28,0.967 C 22.216,-0.495 22.2,-0.49 22.176,-0.49 l -0.107,0 c -0.026,0 -0.045,-0.01 -0.053,-0.04 l -0.273,-0.957 -0.006,0 -0.251,0.96 c -0.003,0.024 -0.023,0.037 -0.062,0.037 l -0.139,0 c -0.04,0 -0.045,-0.026 -0.037,-0.052 l 0.35,-1.171 c 0.008,-0.029 0.028,-0.047 0.063,-0.047 l 0.132,0 c 0.031,0 0.055,0.01 0.065,0.044 l 0.248,0.881 0.002,0 0.252,-0.878 c 0.008,-0.032 0.027,-0.047 0.064,-0.047 l 0.134,0 c 0.031,0 0.053,0.015 0.063,0.047 l 0.353,1.171 c 0.007,0.023 0,0.052 -0.03,0.052 l -0.126,0 z" />
      </g>
      <g
         transform="matrix(1.25,0,0,-1.25,336.07183,584.11244)"
         id="g4181">
        <path
           inkscape:connector-curvature="0"
           id="path4183"
           style="fill:#49aee6;fill-opacity:1;fill-rule:nonzero;stroke:none"
           d="m 0,0 0,0.009 -0.071,1.709 c -0.002,0.034 -0.01,0.047 -0.041,0.047 l -0.122,0 c -0.031,0 -0.044,-0.01 -0.058,-0.041 l -0.589,-1.432 -0.002,0 -0.639,1.434 c -0.014,0.029 -0.027,0.039 -0.069,0.039 l -0.113,0 c -0.029,0 -0.04,-0.01 -0.041,-0.055 l -0.062,-1.706 0,-0.006 c 0,-0.033 0.013,-0.045 0.048,-0.045 l 0.129,0 c 0.039,0 0.052,0.012 0.052,0.047 l 0.032,1.287 0.002,0 0.55,-1.297 c 0.014,-0.031 0.027,-0.037 0.053,-0.037 l 0.089,0 c 0.022,0 0.037,0.006 0.048,0.032 l 0.507,1.302 0.005,0 0.045,-1.273 c 0.003,-0.044 0.013,-0.061 0.05,-0.061 l 0.15,0 C -0.013,-0.047 0,-0.035 0,0 m 1.441,0.674 c 0,0.171 -0.045,0.327 -0.15,0.435 C 1.204,1.197 1.084,1.253 0.933,1.253 0.555,1.253 0.32,0.966 0.32,0.59 c 0,-0.398 0.216,-0.664 0.621,-0.664 0.121,0 0.289,0.025 0.403,0.078 0.023,0.012 0.036,0.023 0.028,0.047 L 1.344,0.148 C 1.336,0.179 1.309,0.174 1.285,0.166 1.197,0.132 1.077,0.11 0.969,0.11 0.705,0.11 0.562,0.305 0.555,0.556 l 0.807,0 c 0.068,0 0.079,0.013 0.079,0.073 l 0,0.045 z M 0.56,0.708 c 0.021,0.195 0.145,0.371 0.363,0.371 0.2,0 0.298,-0.156 0.298,-0.334 l 0,-0.037 -0.661,0 z m 2.244,1.07 c 0,0.032 -0.014,0.045 -0.04,0.045 -0.005,0 -0.007,0 -0.141,-0.018 C 2.589,1.8 2.581,1.784 2.581,1.75 l 0,-0.641 C 2.505,1.2 2.359,1.255 2.239,1.255 1.891,1.255 1.666,0.969 1.666,0.582 c 0,-0.344 0.162,-0.656 0.541,-0.656 0.15,0 0.304,0.072 0.387,0.172 L 2.596,0.004 c 0,-0.034 0.016,-0.051 0.055,-0.051 l 0.113,0 c 0.025,0 0.04,0.022 0.04,0.056 l 0,1.769 z M 2.581,0.279 C 2.516,0.184 2.372,0.105 2.25,0.105 c -0.23,0 -0.354,0.208 -0.354,0.488 0,0.288 0.137,0.483 0.374,0.483 0.129,0 0.255,-0.083 0.311,-0.184 l 0,-0.613 z M 3.428,1.534 C 3.428,1.611 3.362,1.66 3.292,1.66 3.22,1.66 3.157,1.611 3.157,1.534 c 0,-0.077 0.063,-0.126 0.135,-0.126 0.067,0 0.136,0.049 0.136,0.126 M 3.405,1.171 c 0,0.037 -0.017,0.053 -0.05,0.053 l -0.122,0 C 3.199,1.224 3.18,1.208 3.18,1.171 l 0,-1.162 c 0,-0.037 0.019,-0.056 0.053,-0.056 l 0.122,0 c 0.033,0 0.05,0.019 0.05,0.056 l 0,1.162 z M 4.704,0.037 c 0,0.008 -0.002,0.019 -0.005,0.029 L 4.675,0.14 C 4.67,0.158 4.662,0.166 4.649,0.166 4.643,0.166 4.636,0.163 4.629,0.161 4.544,0.124 4.447,0.098 4.334,0.098 c -0.281,0 -0.398,0.231 -0.398,0.5 0,0.294 0.158,0.481 0.408,0.481 0.103,0 0.192,-0.029 0.273,-0.066 0.008,-0.005 0.019,-0.008 0.024,-0.008 0.016,0 0.023,0.013 0.029,0.032 l 0.022,0.085 c 0.002,0.007 0.005,0.013 0.005,0.02 0,0.016 -0.008,0.027 -0.027,0.035 -0.092,0.047 -0.223,0.076 -0.336,0.076 -0.395,0 -0.629,-0.278 -0.629,-0.666 0,-0.392 0.2,-0.661 0.613,-0.661 0.12,0 0.242,0.025 0.355,0.078 0.024,0.01 0.031,0.018 0.031,0.033 m 1.385,0.04 c 0,0.028 -0.012,0.033 -0.036,0.033 l -0.018,0 C 6.014,0.11 6.001,0.116 5.989,0.135 5.98,0.149 5.977,0.192 5.977,0.253 l 0,0.92 c 0,0.035 -0.015,0.051 -0.048,0.051 l -0.118,0 C 5.782,1.224 5.762,1.211 5.762,1.179 L 5.758,1.092 C 5.68,1.197 5.537,1.253 5.406,1.253 c -0.3,0 -0.559,-0.248 -0.559,-0.687 0,-0.332 0.158,-0.64 0.522,-0.64 0.16,0 0.335,0.106 0.395,0.222 l 0.006,0 c 0,-0.105 0.055,-0.195 0.17,-0.195 l 0.11,0 c 0.027,0 0.039,0.008 0.039,0.034 l 0,0.09 z M 5.753,0.379 C 5.706,0.248 5.572,0.113 5.404,0.113 c -0.191,0 -0.325,0.179 -0.325,0.469 0,0.313 0.153,0.492 0.356,0.492 0.126,0 0.255,-0.071 0.318,-0.189 l 0,-0.506 z m 0.836,1.399 c 0,0.034 -0.016,0.045 -0.04,0.045 -0.005,0 -0.008,0 -0.145,-0.018 C 6.373,1.8 6.365,1.789 6.365,1.752 l 0,-1.746 c 0,-0.036 0.016,-0.053 0.047,-0.053 l 0.129,0 c 0.032,0 0.048,0.019 0.048,0.056 l 0,1.769 z M 8.415,0 c 0.017,-0.034 0.041,-0.047 0.08,-0.047 l 0.158,0 c 0.038,0 0.042,0.032 0.027,0.056 L 8.251,0.727 8.248,0.731 C 8.456,0.802 8.617,0.982 8.617,1.234 8.617,1.374 8.58,1.49 8.508,1.576 8.392,1.718 8.19,1.765 7.954,1.765 l -0.379,0 C 7.535,1.765 7.523,1.75 7.523,1.707 l 0,-1.698 c 0,-0.037 0.015,-0.056 0.05,-0.056 l 0.145,0 c 0.033,0 0.049,0.022 0.049,0.056 l 0,0.681 0.253,0 L 8.415,0 Z M 8.37,1.232 C 8.37,0.997 8.2,0.874 7.97,0.874 l -0.203,0 0,0.705 0.168,0 C 8.207,1.579 8.37,1.49 8.37,1.232 M 9.993,0.674 C 9.993,0.845 9.949,1.001 9.844,1.109 9.758,1.197 9.635,1.253 9.486,1.253 9.107,1.253 8.873,0.966 8.873,0.59 c 0,-0.398 0.216,-0.664 0.62,-0.664 0.121,0 0.29,0.025 0.403,0.078 0.024,0.012 0.037,0.023 0.03,0.047 L 9.896,0.148 C 9.887,0.179 9.862,0.174 9.838,0.166 9.75,0.132 9.631,0.11 9.523,0.11 9.257,0.11 9.115,0.305 9.107,0.556 l 0.808,0 c 0.068,0 0.078,0.013 0.078,0.073 l 0,0.045 z M 9.111,0.708 c 0.022,0.195 0.146,0.371 0.365,0.371 0.2,0 0.296,-0.156 0.296,-0.334 l 0,-0.037 -0.661,0 z m 1.956,-0.389 c 0,0.168 -0.118,0.274 -0.262,0.334 L 10.599,0.74 c -0.11,0.047 -0.164,0.089 -0.164,0.179 0,0.089 0.077,0.163 0.217,0.163 0.084,0 0.207,-0.032 0.276,-0.064 0.008,-0.002 0.016,-0.005 0.021,-0.005 0.013,0 0.024,0.009 0.029,0.027 l 0.028,0.091 c 0.003,0.008 0.007,0.017 0.007,0.022 0,0.011 -0.009,0.018 -0.025,0.026 -0.118,0.055 -0.228,0.074 -0.342,0.074 -0.231,0 -0.442,-0.118 -0.442,-0.35 0,-0.166 0.116,-0.271 0.271,-0.331 l 0.177,-0.069 c 0.121,-0.048 0.197,-0.103 0.197,-0.205 0,-0.124 -0.102,-0.197 -0.255,-0.197 -0.09,0 -0.214,0.036 -0.313,0.078 C 10.263,0.187 10.245,0.176 10.236,0.155 L 10.202,0.061 c -0.008,-0.021 0,-0.039 0.023,-0.05 0.087,-0.04 0.227,-0.085 0.361,-0.085 0.279,0 0.481,0.151 0.481,0.393 m 1.331,0.355 c 0,0.171 -0.045,0.327 -0.15,0.435 -0.087,0.088 -0.208,0.144 -0.358,0.144 -0.379,0 -0.614,-0.287 -0.614,-0.663 0,-0.398 0.217,-0.664 0.622,-0.664 0.122,0 0.289,0.025 0.402,0.078 0.024,0.012 0.037,0.023 0.029,0.047 L 12.3,0.148 C 12.292,0.179 12.266,0.174 12.242,0.166 12.154,0.132 12.035,0.11 11.927,0.11 c -0.265,0 -0.408,0.195 -0.416,0.446 l 0.808,0 c 0.067,0 0.079,0.013 0.079,0.073 l 0,0.045 z m -0.882,0.034 c 0.021,0.195 0.146,0.371 0.364,0.371 0.2,0 0.297,-0.156 0.297,-0.334 l 0,-0.037 -0.661,0 z M 13.86,0.077 c 0,0.028 -0.013,0.033 -0.036,0.033 l -0.019,0 c -0.021,0 -0.034,0.006 -0.044,0.025 -0.011,0.014 -0.014,0.057 -0.014,0.118 l 0,0.92 c 0,0.035 -0.016,0.051 -0.047,0.051 l -0.118,0 c -0.03,0 -0.05,-0.013 -0.05,-0.045 L 13.529,1.092 c -0.079,0.105 -0.221,0.161 -0.352,0.161 -0.301,0 -0.56,-0.248 -0.56,-0.687 0,-0.332 0.159,-0.64 0.523,-0.64 0.161,0 0.334,0.106 0.395,0.222 l 0.005,0 c 0,-0.105 0.055,-0.195 0.17,-0.195 l 0.111,0 c 0.026,0 0.039,0.008 0.039,0.034 l 0,0.09 z m -0.336,0.302 c -0.047,-0.131 -0.182,-0.266 -0.35,-0.266 -0.19,0 -0.324,0.179 -0.324,0.469 0,0.313 0.154,0.492 0.355,0.492 0.127,0 0.256,-0.071 0.319,-0.189 l 0,-0.506 z m 0.775,0.845 -0.114,0 c -0.031,0 -0.049,-0.013 -0.049,-0.053 l 0,-1.162 c 0,-0.037 0.015,-0.056 0.049,-0.056 l 0.124,0 c 0.034,0 0.05,0.022 0.05,0.056 l 0,0.896 c 0.068,0.098 0.171,0.158 0.263,0.158 0.047,0 0.064,-0.007 0.085,-0.007 0.015,0 0.026,0.007 0.028,0.026 L 14.753,1.2 c 0.003,0.018 0.003,0.039 -0.02,0.044 -0.026,0.005 -0.058,0.009 -0.077,0.009 -0.139,0 -0.239,-0.08 -0.302,-0.166 l -0.003,0.09 c 0,0.034 -0.018,0.047 -0.052,0.047 m 1.574,-1.187 c 0,0.008 -0.002,0.019 -0.005,0.029 L 15.845,0.14 c -0.006,0.018 -0.013,0.026 -0.026,0.026 -0.006,0 -0.014,-0.003 -0.022,-0.005 -0.084,-0.037 -0.182,-0.063 -0.294,-0.063 -0.281,0 -0.398,0.231 -0.398,0.5 0,0.294 0.157,0.481 0.408,0.481 0.102,0 0.192,-0.029 0.274,-0.066 0.008,-0.005 0.018,-0.008 0.023,-0.008 0.016,0 0.025,0.013 0.029,0.032 l 0.021,0.085 c 0.003,0.007 0.006,0.013 0.006,0.02 0,0.016 -0.008,0.027 -0.027,0.035 -0.092,0.047 -0.224,0.076 -0.336,0.076 -0.395,0 -0.629,-0.278 -0.629,-0.666 0,-0.392 0.2,-0.661 0.613,-0.661 0.121,0 0.242,0.025 0.355,0.078 0.024,0.01 0.031,0.018 0.031,0.033 m 1.304,0.745 c 0,0.287 -0.111,0.471 -0.413,0.471 -0.147,0 -0.315,-0.053 -0.431,-0.156 l 0,0.681 c 0,0.034 -0.016,0.045 -0.039,0.045 -0.008,0 -0.035,-0.005 -0.135,-0.018 C 16.128,1.8 16.11,1.786 16.11,1.75 l 0,-1.75 c 0,-0.03 0.013,-0.047 0.041,-0.047 l 0.137,0 c 0.031,0 0.045,0.017 0.045,0.051 l 0,0.91 c 0.092,0.084 0.244,0.152 0.366,0.152 0.208,0 0.255,-0.137 0.255,-0.321 l 0,-0.741 c 0,-0.034 0.013,-0.051 0.045,-0.051 l 0.136,0 c 0.032,0 0.042,0.017 0.042,0.051 l 0,0.778 z m 1.708,-0.661 c -0.404,0 -0.582,0.356 -0.582,0.75 0,0.195 0.047,0.387 0.162,0.529 0.101,0.126 0.251,0.2 0.42,0.2 0.138,0 0.267,-0.035 0.391,-0.106 0.008,-0.004 0.016,-0.007 0.024,-0.007 0.013,0 0.024,0.007 0.031,0.025 l 0.042,0.099 c 0.005,0.013 0.008,0.022 0.008,0.031 0,0.016 -0.011,0.024 -0.031,0.037 -0.145,0.081 -0.308,0.118 -0.481,0.118 -0.527,0 -0.826,-0.436 -0.826,-0.939 0,-0.513 0.257,-0.932 0.807,-0.932 0.182,0 0.345,0.037 0.507,0.114 0.037,0.016 0.045,0.041 0.029,0.073 L 19.352,0.195 C 19.339,0.227 19.318,0.231 19.295,0.219 19.173,0.155 19.014,0.121 18.885,0.121 m 1.881,0.469 c 0,0.381 -0.184,0.663 -0.592,0.663 -0.392,0 -0.605,-0.29 -0.605,-0.66 0,-0.377 0.181,-0.667 0.589,-0.667 0.393,0 0.608,0.293 0.608,0.664 M 20.535,0.587 c 0,-0.244 -0.097,-0.486 -0.374,-0.486 -0.279,0 -0.361,0.254 -0.361,0.497 0,0.231 0.087,0.481 0.372,0.481 0.273,0 0.363,-0.248 0.363,-0.492 m 1.571,0.584 c 0,0.037 -0.016,0.053 -0.05,0.053 l -0.124,0 c -0.034,0 -0.05,-0.016 -0.05,-0.053 l 0,-0.896 c -0.083,-0.08 -0.231,-0.157 -0.348,-0.157 -0.209,0 -0.252,0.132 -0.252,0.319 l 0,0.734 c 0,0.037 -0.017,0.053 -0.051,0.053 l -0.119,0 c -0.034,0 -0.053,-0.016 -0.053,-0.053 l 0,-0.768 c 0,-0.282 0.111,-0.477 0.413,-0.477 0.152,0 0.295,0.056 0.415,0.158 l 0.004,-0.08 c 0,-0.032 0.018,-0.051 0.049,-0.051 l 0.114,0 c 0.036,0 0.052,0.019 0.052,0.058 l 0,1.16 z m 1.43,-0.389 c 0,0.287 -0.114,0.471 -0.417,0.471 -0.153,0 -0.311,-0.056 -0.432,-0.158 l -0.002,0.082 c 0,0.034 -0.019,0.047 -0.05,0.047 l -0.116,0 c -0.036,0 -0.05,-0.016 -0.05,-0.053 l 0,-1.165 c 0,-0.034 0.018,-0.053 0.05,-0.053 l 0.123,0 c 0.035,0 0.05,0.019 0.05,0.056 l 0,0.905 c 0.093,0.084 0.243,0.152 0.363,0.152 0.211,0 0.258,-0.134 0.258,-0.321 l 0,-0.736 c 0,-0.037 0.017,-0.056 0.051,-0.056 l 0.123,0 c 0.037,0 0.049,0.019 0.049,0.056 l 0,0.773 z m 1.291,-0.745 c 0,0.008 -0.003,0.019 -0.006,0.029 L 24.798,0.14 c -0.005,0.018 -0.013,0.026 -0.026,0.026 -0.005,0 -0.013,-0.003 -0.021,-0.005 -0.084,-0.037 -0.182,-0.063 -0.295,-0.063 -0.282,0 -0.397,0.231 -0.397,0.5 0,0.294 0.158,0.481 0.407,0.481 0.103,0 0.192,-0.029 0.274,-0.066 0.008,-0.005 0.019,-0.008 0.024,-0.008 0.015,0 0.024,0.013 0.029,0.032 l 0.02,0.085 c 0.003,0.007 0.006,0.013 0.006,0.02 0,0.016 -0.008,0.027 -0.026,0.035 -0.092,0.047 -0.224,0.076 -0.337,0.076 -0.395,0 -0.628,-0.278 -0.628,-0.666 0,-0.392 0.199,-0.661 0.612,-0.661 0.121,0 0.242,0.025 0.355,0.078 0.024,0.01 0.032,0.018 0.032,0.033 m 0.495,1.497 c 0,0.077 -0.065,0.126 -0.136,0.126 -0.072,0 -0.134,-0.049 -0.134,-0.126 0,-0.077 0.062,-0.126 0.134,-0.126 0.068,0 0.136,0.049 0.136,0.126 M 25.299,1.171 c 0,0.037 -0.016,0.053 -0.05,0.053 l -0.121,0 c -0.035,0 -0.053,-0.016 -0.053,-0.053 l 0,-1.162 c 0,-0.037 0.018,-0.056 0.053,-0.056 l 0.121,0 c 0.034,0 0.05,0.019 0.05,0.056 l 0,1.162 z m 0.598,0.607 c 0,0.034 -0.015,0.045 -0.039,0.045 -0.005,0 -0.008,0 -0.144,-0.018 C 25.683,1.8 25.674,1.789 25.674,1.752 l 0,-1.746 c 0,-0.036 0.016,-0.053 0.048,-0.053 l 0.128,0 c 0.032,0 0.047,0.019 0.047,0.056 l 0,1.769 z" />
      </g>
      <g
         transform="matrix(1.25,0,0,-1.25,339.20283,579.86456)"
         id="g4185">
        <path
           inkscape:connector-curvature="0"
           id="path4187"
           style="fill:#1c385d;fill-opacity:1;fill-rule:nonzero;stroke:none"
           d="m 0,0 c 1.663,0 2.759,0.612 3.769,1.55 0.057,0.057 0.113,0.142 0.113,0.256 0,0.185 -0.17,0.356 -0.355,0.356 C 3.412,2.162 3.328,2.105 3.271,2.048 2.333,1.152 1.38,0.669 0.029,0.669 c -2.377,0 -4.211,1.962 -4.211,4.48 l 0,0.028 c 0,2.503 1.806,4.453 4.195,4.453 1.395,0 2.348,-0.541 3.173,-1.295 0.056,-0.057 0.156,-0.1 0.256,-0.1 0.199,0 0.384,0.171 0.384,0.37 0,0.128 -0.072,0.227 -0.142,0.299 -0.968,0.825 -2.006,1.394 -3.655,1.394 -2.874,0 -4.979,-2.333 -4.979,-5.149 l 0,-0.029 C -4.95,2.261 -2.845,0 0,0 m 9.506,0.071 0.028,0 c 0.228,0 0.357,0.129 0.442,0.327 l 4.067,9.303 c 0.029,0.056 0.029,0.085 0.029,0.141 0,0.172 -0.157,0.342 -0.355,0.342 -0.171,0 -0.299,-0.128 -0.37,-0.285 L 9.534,0.967 5.737,9.885 c -0.07,0.171 -0.199,0.299 -0.384,0.299 -0.213,0 -0.37,-0.185 -0.37,-0.356 0,-0.071 0,-0.099 0.028,-0.156 L 9.066,0.398 C 9.151,0.2 9.279,0.071 9.506,0.071 m 5.99,0.413 c 0,-0.2 0.17,-0.37 0.37,-0.37 0.199,0 0.37,0.17 0.37,0.37 l 0,3.812 3.257,0 3.057,-3.983 c 0.086,-0.113 0.186,-0.199 0.328,-0.199 0.199,0 0.384,0.184 0.384,0.384 0,0.086 -0.043,0.171 -0.114,0.256 l -2.83,3.67 c 1.678,0.227 2.915,1.18 2.915,2.844 l 0,0.029 c 0,0.71 -0.284,1.379 -0.753,1.849 -0.597,0.597 -1.578,0.981 -2.802,0.981 l -3.812,0 c -0.2,0 -0.37,-0.171 -0.37,-0.37 l 0,-9.273 z m 0.74,4.48 0,4.48 3.398,0 c 1.807,0 2.859,-0.839 2.859,-2.176 l 0,-0.028 c 0,-1.437 -1.236,-2.276 -2.9,-2.276 l -3.357,0 z" />
      </g>
      <g
         transform="matrix(1.25,0,0,-1.25,304.26983,593.54194)"
         id="g4189">
        <path
           inkscape:connector-curvature="0"
           id="path4191"
           style="fill:#1c385d;fill-opacity:1;fill-rule:nonzero;stroke:none"
           d="M 0,0 12.966,0 19.45,11.23 12.966,22.459 0,22.459 -6.483,11.23 0,0 Z m 13.035,-0.24 -13.104,0 c -0.043,0 -0.083,0.023 -0.104,0.061 l -6.553,11.348 c -0.021,0.038 -0.021,0.083 0,0.121 l 6.553,11.349 c 0.021,0.037 0.061,0.06 0.104,0.06 l 13.104,0 c 0.043,0 0.083,-0.023 0.105,-0.06 L 19.692,11.29 c 0.021,-0.038 0.021,-0.083 0,-0.121 L 13.14,-0.179 C 13.118,-0.217 13.078,-0.24 13.035,-0.24" />
      </g>
      <g
         transform="matrix(1.25,0,0,-1.25,304.26808,592.90594)"
         id="g4193">
        <path
           inkscape:connector-curvature="0"
           id="path4195"
           style="fill:#1d406a;fill-opacity:1;fill-rule:nonzero;stroke:none"
           d="M 0,0 12.306,-0.122 18.565,10.475 12.518,21.194 0.211,21.316 -6.048,10.72 0,0 Z m 12.374,-0.362 -0.001,0 -12.445,0.124 c -0.043,0 -0.082,0.023 -0.103,0.061 l -6.116,10.839 c -0.021,0.037 -0.02,0.083 0.001,0.12 l 6.33,10.716 c 0.022,0.037 0.062,0.059 0.104,0.059 L 12.59,21.433 c 0.042,0 0.082,-0.023 0.103,-0.061 l 6.116,-10.839 c 0.02,-0.038 0.02,-0.083 -0.002,-0.12 L 12.478,-0.303 c -0.022,-0.036 -0.061,-0.059 -0.104,-0.059" />
      </g>
      <g
         transform="matrix(1.25,0,0,-1.25,304.26596,592.26919)"
         id="g4197">
        <path
           inkscape:connector-curvature="0"
           id="path4199"
           style="fill:#1d4876;fill-opacity:1;fill-rule:nonzero;stroke:none"
           d="M 0,0 11.647,-0.243 17.682,9.72 12.07,19.929 0.423,20.173 -5.612,10.209 0,0 Z m 11.714,-0.486 -0.003,0 -11.785,0.248 c -0.043,0 -0.082,0.024 -0.103,0.061 l -5.679,10.331 c -0.02,0.037 -0.019,0.083 0.003,0.12 l 6.107,10.083 c 0.022,0.036 0.061,0.059 0.105,0.058 l 11.785,-0.247 c 0.043,-0.002 0.082,-0.025 0.102,-0.063 l 5.679,-10.33 c 0.021,-0.037 0.02,-0.083 -0.002,-0.12 L 11.816,-0.428 c -0.022,-0.035 -0.061,-0.058 -0.102,-0.058" />
      </g>
      <g
         transform="matrix(1.25,0,0,-1.25,304.26421,591.63256)"
         id="g4201">
        <path
           inkscape:connector-curvature="0"
           id="path4203"
           style="fill:#205080;fill-opacity:1;fill-rule:nonzero;stroke:none"
           d="M 0,0 10.987,-0.366 16.798,8.966 11.621,18.665 0.634,19.03 -5.176,9.698 0,0 Z m 11.053,-0.608 -0.005,0 -11.125,0.37 c -0.043,0.002 -0.082,0.026 -0.102,0.064 l -5.242,9.82 c -0.02,0.038 -0.018,0.084 0.004,0.12 l 5.884,9.45 c 0.023,0.036 0.063,0.058 0.106,0.056 l 11.125,-0.37 C 11.741,18.9 11.78,18.876 11.8,18.839 l 5.242,-9.821 c 0.02,-0.038 0.019,-0.084 -0.004,-0.12 l -5.884,-9.45 c -0.022,-0.035 -0.06,-0.056 -0.101,-0.056" />
      </g>
      <g
         transform="matrix(1.25,0,0,-1.25,304.26308,590.99719)"
         id="g4205">
        <path
           inkscape:connector-curvature="0"
           id="path4207"
           style="fill:#24588a;fill-opacity:1;fill-rule:nonzero;stroke:none"
           d="m 0,0 10.327,-0.487 5.587,8.7 -4.742,9.188 L 0.844,17.888 -4.742,9.188 0,0 Z m 10.391,-0.731 -0.006,0 -10.466,0.495 c -0.043,0.002 -0.081,0.026 -0.101,0.065 L -4.987,9.14 c -0.019,0.038 -0.017,0.083 0.006,0.119 l 5.661,8.817 c 0.023,0.036 0.063,0.057 0.106,0.055 l 10.466,-0.494 c 0.043,-0.002 0.082,-0.026 0.101,-0.065 l 4.805,-9.311 c 0.02,-0.038 0.018,-0.084 -0.005,-0.12 L 10.492,-0.676 C 10.47,-0.71 10.432,-0.731 10.391,-0.731" />
      </g>
      <g
         transform="matrix(1.25,0,0,-1.25,304.26146,590.36194)"
         id="g4209">
        <path
           inkscape:connector-curvature="0"
           id="path4211"
           style="fill:#285f93;fill-opacity:1;fill-rule:nonzero;stroke:none"
           d="M 0,0 9.668,-0.609 15.03,7.46 10.723,16.137 1.055,16.746 -4.307,8.678 0,0 Z m 9.73,-0.852 -0.008,0 -9.806,0.617 c -0.043,0.003 -0.081,0.028 -0.1,0.066 l -4.368,8.802 c -0.019,0.039 -0.017,0.084 0.008,0.12 l 5.437,8.184 c 0.024,0.035 0.065,0.056 0.108,0.053 l 9.806,-0.618 c 0.043,-0.002 0.081,-0.028 0.1,-0.066 L 15.275,7.505 C 15.294,7.466 15.291,7.421 15.268,7.385 L 9.83,-0.799 C 9.807,-0.832 9.77,-0.852 9.73,-0.852" />
      </g>
      <g
         transform="matrix(1.25,0,0,-1.25,304.26083,589.72631)"
         id="g4213">
        <path
           inkscape:connector-curvature="0"
           id="path4215"
           style="fill:#2b669c;fill-opacity:1;fill-rule:nonzero;stroke:none"
           d="m 0,0 9.008,-0.73 5.137,7.437 -3.873,8.167 -9.008,0.73 L -3.872,8.167 0,0 Z m 9.068,-0.975 c -0.004,0 -0.007,0.001 -0.01,0.001 l -9.147,0.74 c -0.042,0.004 -0.08,0.03 -0.098,0.069 l -3.932,8.292 c -0.018,0.039 -0.014,0.084 0.01,0.119 l 5.215,7.551 c 0.025,0.035 0.066,0.055 0.108,0.051 l 9.147,-0.741 c 0.043,-0.003 0.08,-0.029 0.099,-0.068 L 14.391,6.747 C 14.41,6.708 14.406,6.663 14.381,6.628 L 9.166,-0.923 C 9.144,-0.956 9.107,-0.975 9.068,-0.975" />
      </g>
      <g
         transform="matrix(1.25,0,0,-1.25,304.26033,589.09056)"
         id="g4217">
        <path
           inkscape:connector-curvature="0"
           id="path4219"
           style="fill:#2f6ea5;fill-opacity:1;fill-rule:nonzero;stroke:none"
           d="M 0,0 8.349,-0.851 13.26,5.954 9.822,13.611 1.473,14.461 -3.438,7.656 0,0 Z m 8.405,-1.097 c -0.003,0 -0.008,0 -0.012,10e-4 l -8.487,0.864 c -0.042,0.005 -0.079,0.031 -0.097,0.071 L -3.685,7.621 C -3.703,7.66 -3.699,7.705 -3.673,7.74 l 4.992,6.918 c 0.025,0.034 0.067,0.053 0.11,0.049 l 8.486,-0.865 c 0.043,-0.004 0.08,-0.031 0.098,-0.07 L 13.507,5.99 C 13.525,5.951 13.52,5.905 13.495,5.87 L 8.503,-1.047 C 8.48,-1.079 8.444,-1.097 8.405,-1.097" />
      </g>
      <g
         transform="matrix(1.25,0,0,-1.25,304.25971,588.45594)"
         id="g4221">
        <path
           inkscape:connector-curvature="0"
           id="path4223"
           style="fill:#3376ae;fill-opacity:1;fill-rule:nonzero;stroke:none"
           d="M 0,0 7.69,-0.971 12.375,5.203 9.371,12.348 1.682,13.319 -3.004,7.145 0,0 Z m 7.743,-1.219 c -0.004,0 -0.009,0.001 -0.014,0.002 l -7.827,0.988 c -0.043,0.004 -0.079,0.033 -0.096,0.072 l -3.058,7.273 c -0.017,0.039 -0.011,0.085 0.015,0.119 l 4.77,6.284 c 0.026,0.034 0.068,0.052 0.11,0.047 L 9.47,12.578 c 0.042,-0.006 0.079,-0.033 0.096,-0.073 l 3.058,-7.272 c 0.016,-0.04 0.01,-0.085 -0.016,-0.12 L 7.839,-1.171 C 7.816,-1.201 7.781,-1.219 7.743,-1.219" />
      </g>
      <g
         transform="matrix(1.25,0,0,-1.25,304.26033,587.82206)"
         id="g4225">
        <path
           inkscape:connector-curvature="0"
           id="path4227"
           style="fill:#367eb7;fill-opacity:1;fill-rule:nonzero;stroke:none"
           d="M 0,0 7.03,-1.09 11.49,4.454 8.919,11.087 1.889,12.178 -2.571,6.634 0,0 Z m 7.081,-1.339 c -0.007,0 -0.012,0 -0.019,10e-4 l -7.167,1.112 c -0.043,0.006 -0.079,0.035 -0.094,0.075 L -2.82,6.612 c -0.015,0.04 -0.008,0.085 0.019,0.119 l 4.546,5.651 c 0.028,0.033 0.07,0.05 0.112,0.043 L 9.025,11.314 C 9.067,11.307 9.102,11.278 9.118,11.239 L 11.739,4.475 C 11.754,4.435 11.747,4.391 11.721,4.356 L 7.174,-1.295 C 7.151,-1.323 7.116,-1.339 7.081,-1.339" />
      </g>
      <g
         transform="matrix(1.25,0,0,-1.25,304.26083,587.18856)"
         id="g4229">
        <path
           inkscape:connector-curvature="0"
           id="path4231"
           style="fill:#3985c0;fill-opacity:1;fill-rule:nonzero;stroke:none"
           d="M 0,0 6.372,-1.209 10.605,3.704 8.467,9.827 2.095,11.036 -2.138,6.123 0,0 Z m 6.418,-1.46 c -0.008,0 -0.015,10e-4 -0.023,0.002 l -6.507,1.235 c -0.043,0.009 -0.077,0.038 -0.092,0.079 l -2.183,6.253 c -0.014,0.041 -0.006,0.085 0.022,0.118 l 4.323,5.018 c 0.028,0.033 0.072,0.048 0.114,0.04 L 8.58,10.05 C 8.622,10.042 8.656,10.012 8.67,9.971 L 10.854,3.718 C 10.869,3.677 10.86,3.632 10.832,3.6 L 6.509,-1.418 C 6.485,-1.445 6.452,-1.46 6.418,-1.46" />
      </g>
      <g
         transform="matrix(1.25,0,0,-1.25,304.26308,586.55556)"
         id="g4233">
        <path
           inkscape:connector-curvature="0"
           id="path4235"
           style="fill:#3c8dc9;fill-opacity:1;fill-rule:nonzero;stroke:none"
           d="M 0,0 5.714,-1.327 9.719,2.957 8.012,8.568 2.299,9.895 -1.707,5.611 0,0 Z m 5.753,-1.58 c -0.008,0 -0.018,0.001 -0.027,0.003 l -5.848,1.358 c -0.042,0.01 -0.075,0.042 -0.087,0.082 l -1.748,5.745 c -0.012,0.041 -0.002,0.085 0.027,0.116 l 4.101,4.386 c 0.029,0.031 0.073,0.044 0.115,0.034 L 8.134,8.786 C 8.176,8.776 8.209,8.745 8.222,8.704 L 9.969,2.96 C 9.981,2.919 9.971,2.874 9.942,2.843 L 5.841,-1.542 C 5.818,-1.566 5.786,-1.58 5.753,-1.58" />
      </g>
      <g
         transform="matrix(1.25,0,0,-1.25,304.26596,585.92531)"
         id="g4237">
        <path
           inkscape:connector-curvature="0"
           id="path4239"
           style="fill:#3f95d1;fill-opacity:1;fill-rule:nonzero;stroke:none"
           d="M 0,0 5.055,-1.444 8.833,2.212 7.556,7.312 2.501,8.756 -1.277,5.1 0,0 Z m 5.089,-1.698 c -0.011,0 -0.022,10e-4 -0.033,0.005 l -5.189,1.481 c -0.041,0.012 -0.073,0.045 -0.083,0.087 l -1.311,5.234 c -0.01,0.042 0.003,0.086 0.033,0.116 l 3.878,3.752 c 0.031,0.03 0.075,0.041 0.117,0.029 L 7.689,7.524 C 7.73,7.512 7.762,7.479 7.773,7.437 L 9.083,2.203 C 9.093,2.161 9.081,2.117 9.05,2.088 L 5.172,-1.664 C 5.15,-1.686 5.119,-1.698 5.089,-1.698" />
      </g>
      <g
         transform="matrix(1.25,0,0,-1.25,304.2692,585.29619)"
         id="g4241">
        <path
           inkscape:connector-curvature="0"
           id="path4243"
           style="fill:#429eda;fill-opacity:1;fill-rule:nonzero;stroke:none"
           d="M 0,0 4.398,-1.558 7.948,1.47 7.099,6.059 2.701,7.618 -0.848,4.589 0,0 Z m 4.423,-1.815 c -0.013,0 -0.027,0.003 -0.04,0.007 l -4.528,1.605 c -0.041,0.015 -0.071,0.05 -0.078,0.092 l -0.874,4.725 c -0.008,0.042 0.008,0.085 0.04,0.113 L 2.598,7.846 C 2.631,7.873 2.676,7.882 2.716,7.867 L 7.245,6.262 C 7.286,6.247 7.315,6.213 7.323,6.17 L 8.197,1.446 C 8.204,1.404 8.189,1.36 8.156,1.332 L 4.501,-1.786 C 4.479,-1.805 4.451,-1.815 4.423,-1.815" />
      </g>
      <g
         transform="matrix(1.25,0,0,-1.25,304.27433,584.66894)"
         id="g4245">
        <path
           inkscape:connector-curvature="0"
           id="path4247"
           style="fill:#45a6e1;fill-opacity:1;fill-rule:nonzero;stroke:none"
           d="M 0,0 3.743,-1.673 7.063,0.731 6.64,4.809 2.898,6.482 -0.423,4.078 0,0 Z m 3.757,-1.931 c -0.017,0 -0.033,0.004 -0.049,0.011 l -3.869,1.729 c -0.039,0.017 -0.066,0.055 -0.07,0.097 l -0.437,4.216 c -0.005,0.042 0.014,0.084 0.049,0.109 l 3.432,2.486 c 0.035,0.025 0.08,0.03 0.119,0.012 L 6.801,5 C 6.84,4.982 6.867,4.945 6.872,4.903 L 7.309,0.688 C 7.313,0.645 7.294,0.603 7.26,0.578 L 3.827,-1.907 C 3.806,-1.923 3.782,-1.931 3.757,-1.931" />
      </g>
      <g
         transform="matrix(1.25,0,0,-1.25,304.28046,584.04681)"
         id="g4249">
        <path
           inkscape:connector-curvature="0"
           id="path4251"
           style="fill:#49aee6;fill-opacity:1;fill-rule:nonzero;stroke:none"
           d="M 0,0 3.09,-1.783 6.179,0 6.179,3.567 3.09,5.35 0,3.567 0,0 Z m 3.09,-2.041 c -0.021,0 -0.042,0.005 -0.061,0.015 l -3.209,1.852 c -0.037,0.022 -0.06,0.062 -0.06,0.104 l 0,3.706 c 0,0.043 0.023,0.083 0.06,0.104 l 3.209,1.853 c 0.038,0.021 0.083,0.021 0.12,0 L 6.359,3.74 C 6.396,3.719 6.419,3.679 6.419,3.636 l 0,-3.706 c 0,-0.042 -0.023,-0.082 -0.06,-0.104 L 3.149,-2.026 C 3.131,-2.036 3.11,-2.041 3.09,-2.041" />
      </g>
    </g>
  </g>
</svg>
